# xmcd
#
# Track frame offsets:
#   150
#   15632
#   27222
#   39079
#   60621
#   74229
#   87217
#   109802
#   126793
#   139224
#   157963
#   174770
#
# Disc length: 2540 seconds
#
# Revision: 0
# Processed by: cddbd v1.5.1PL0 Copyright (c) Steve Scherf et al.
# Submitted via: uFREEDB ActiveX Control 1.5
#
DISCID=9709ea0c
DTITLE=Varios - Top Portugal - Adeus
DYEAR=1900
DGENRE=Alternative
TTITLE0=Luis Manuel - timor
TTITLE1=Graciano saga - sou portugues distante
TTITLE2=Dulce Guimares - lá longe senhora
TTITLE3=Agata - chora no meu colo
TTITLE4=Raul Fernando - branca casinha
TTITLE5=Luis Felipe Reis - so por milagre
TTITLE6=Dina - acordei o vento
TTITLE7=Tozé Morais - não vas pr ai
TTITLE8=Clemente - bela, tão linda
TTITLE9=Jose Malhoa - que sera o que tem essa mulher
TTITLE10=Ilda de Castro - o nostalgia
TTITLE11=Ricardo Jose - agora ja é tarde
EXTD=
EXTT0=
EXTT1=
EXTT2=
EXTT3=
EXTT4=
EXTT5=
EXTT6=
EXTT7=
EXTT8=
EXTT9=
EXTT10=
EXTT11=
PLAYORDER=
